<?xml version="1.0" encoding="utf-8"?>
<!-- Generator: Adobe Illustrator 28.3.0, SVG Export Plug-In . SVG Version: 6.00 Build 0)  -->
<svg version="1.1" id="Layer_1" xmlns="http://www.w3.org/2000/svg" xmlns:xlink="http://www.w3.org/1999/xlink" x="0px" y="0px"
	 viewBox="0 0 16 16" style="enable-background:new 0 0 16 16;" xml:space="preserve">
<style type="text/css">
	.st0{fill:#FFFFFF;}
</style>
<path class="st0" d="M8,0C3.8,0,0.4,3.1,0.4,7c0,2.9,1.2,4.2,2.8,5.5l0,0v3.3c0,0.2,0.2,0.2,0.3,0.2l2.9-2.1l0.1,0
	C7,13.9,7.5,14,8,14c4.2,0,7.6-3.1,7.6-7C15.6,3.1,12.2,0,8,0 M5.5,8.8c0.7,0,1.4-0.4,1.6-1.1h1.1C7.9,9,6.8,9.8,5.5,9.8
	C3.9,9.8,2.6,8.6,2.6,7c0-1.7,1.3-2.8,2.8-2.8c1.4,0,2.4,0.9,2.7,2.2H7C6.9,5.6,6.2,5.2,5.5,5.2C4.4,5.2,3.7,6,3.7,7
	C3.7,8,4.5,8.8,5.5,8.8 M12.7,9.7h-1V7.4c0-0.5-0.3-0.8-0.8-0.8c-0.5,0-0.9,0.3-0.9,1v2.1h-1V4.2h1v2.1c0.2-0.4,0.6-0.5,1.2-0.5
	c0.4,0,0.8,0.1,1.1,0.4c0.3,0.3,0.4,0.7,0.4,1.2V9.7z"/>
</svg>
