<svg xmlns="http://www.w3.org/2000/svg" viewBox="0 0 500.62 134.11"><g id="레이어_2" data-name="레이어 2"><g id="레이어_1-2" data-name="레이어 1"><path d="M29.91,1v9.23h-18v51h16V70.4h-16v53.51h18v9.24H0V1Z"/><path d="M56.8,1l12.58,130.6v1.59H57.49l-2.38-35H44.23l-2.38,35h-11v-1.59L43.38,1Zm-2.38,87.6-3.9-55.11h-1.7L44.91,88.56Z"/><path d="M82.17,106.07V117.7a8.48,8.48,0,0,0,1.62,5.5,5.28,5.28,0,0,0,4.33,2,5.75,5.75,0,0,0,5-2.55c1.2-1.7,1.79-4.51,1.79-8.44a72.2,72.2,0,0,0-3.23-19.75Q88.47,83.31,83,69.28l-2.72-7-2-5.1a171.62,171.62,0,0,1-6.12-18.71,66.87,66.87,0,0,1-2-16.49q0-10.19,4.93-16.09T88.63,0q8.49,0,12.84,5.18T105.8,19V42.37H96.11Q94.75,37,94.75,26.44V16.25a8.22,8.22,0,0,0-1.62-5.34,5.28,5.28,0,0,0-4.32-2,5.79,5.79,0,0,0-5,2.55Q82,14,82,19.91a56.9,56.9,0,0,0,2.46,16.17q2.46,8.36,7,20.3l2.72,7,.51,1.43q3.41,8.45,6,16.17a136,136,0,0,1,4.33,15.69,70.73,70.73,0,0,1,1.7,14.81q0,10.68-4.84,16.64t-13.67,6q-8.67,0-12.92-5.34T71.13,114.2v-24h9.69Q82.17,95.57,82.17,106.07Z"/><path d="M142,1v9.23H130.15v123h-11.9v-123h-11.9V1Z"/><path d="M175.39,1v9.23h-18v51h16V70.4h-16v53.51h18v9.24H145.48V1Z"/><path d="M203.49,4.46q5.43,3.51,8.66,11.23t3.23,19.51v2.87q0,11.94-3.23,20a24.4,24.4,0,0,1-9.52,12v1.6a15,15,0,0,1,6.72,7.24q1.78,4.38,2.12,13.62l.68,23.09a81.25,81.25,0,0,0,.76,9.48,20.22,20.22,0,0,0,2,6.45v1.59H202.63q-1.51-4.31-1.86-13.85l-1.19-32.5c-.12-3.81-.88-6.63-2.29-8.44a7.44,7.44,0,0,0-6.2-2.71v57.5H179.18V1h11.91A22.45,22.45,0,0,1,203.49,4.46ZM191.09,66.9h.84q5.44,0,8.33-5.18t2.89-17.12V32q0-12-2.89-17.12t-8.33-5.18h-.84Z"/><path d="M230.38,1,243,89.83h1.7L242.62,1h11.21V133.15H242.28L229.7,44.28H228l2.05,88.87H218.83V1Z"/><path d="M303.89,1v9.23h-18v51h16V70.4h-16v53.51h18v9.24H274V1Z"/><path d="M338.18,8.29q6,7.32,6,22.93v71.67q0,15.61-6,22.94t-18.6,7.32h-11.9V1h11.9Q332.15,1,338.18,8.29Zm-18.6,116.1h2.54a9.1,9.1,0,0,0,7.57-3.34q2.63-3.35,2.63-9.4V22.46q0-6-2.63-9.4a9.07,9.07,0,0,0-7.57-3.34h-2.54Z"/><path d="M361.43,1V133.15h-11.9V1Z"/><path d="M400.55,1v9.23H388.66v123H376.77v-123h-11.9V1Z"/><path d="M415.9,1V133.15H404V1Z"/><path d="M426.23,7.49Q431.24,0,440.76,0t14.52,7.49q5,7.49,5,21.18v76.77q0,13.69-5,21.18t-14.52,7.49q-9.52,0-14.53-7.49t-5-21.18V28.67Q421.22,15,426.23,7.49Zm9.51,114.91a6.33,6.33,0,0,0,10,0c1.19-1.64,1.79-4,1.79-7.09V18.79q0-4.6-1.79-7.08a6.33,6.33,0,0,0-10,0Q434,14.18,434,18.79v96.52C434,118.39,434.55,120.76,435.74,122.4Z"/><path d="M477.17,1l12.57,88.87h1.7L489.41,1h11.21V133.15H489.06L476.49,44.28h-1.7l2,88.87H465.61V1Z"/></g></g></svg>